<?xml version="1.0" standalone="no"?>
<!DOCTYPE svg PUBLIC "-//W3C//DTD SVG 20010904//EN"
 "http://www.w3.org/TR/2001/REC-SVG-20010904/DTD/svg10.dtd">
<svg version="1.0" xmlns="http://www.w3.org/2000/svg"
 width="260.000000pt" height="260.000000pt" viewBox="0 0 260.000000 260.000000"
 preserveAspectRatio="xMidYMid meet">
<metadata>
Created by potrace 1.14, written by Peter Selinger 2001-2017
</metadata>
<g transform="translate(0.000000,260.000000) scale(0.100000,-0.100000)"
fill="#000000" stroke="none">
<path d="M0 1910 c0 -389 4 -689 9 -685 5 2 11 -2 14 -10 4 -9 1 -12 -9 -8
-13 5 -14 -71 -14 -600 l1 -605 109 1 c64 1 106 5 103 11 -4 5 -1 6 8 0 17
-11 469 -13 469 -2 0 4 -5 10 -10 13 -8 5 -7 11 1 21 6 8 9 17 6 20 -3 3 -12
-3 -19 -15 -14 -23 -30 -29 -22 -8 3 8 -4 13 -17 14 -17 2 -18 -1 -9 -13 8 -8
8 -14 2 -14 -23 0 -19 30 8 55 16 16 27 31 25 35 -2 4 2 7 10 7 8 0 11 -5 8
-10 -4 -6 0 -8 8 -5 34 13 61 -39 36 -69 -6 -9 -6 -13 1 -13 21 0 29 28 27 98
-1 63 2 75 18 84 18 9 18 10 -2 32 -16 17 -18 23 -7 23 8 0 14 -3 13 -6 -1 -3
5 -15 13 -26 17 -23 51 -27 58 -6 3 8 0 11 -7 7 -6 -4 -19 -2 -28 3 -16 9 -15
11 7 11 39 0 70 4 70 8 0 2 -7 11 -16 20 -11 11 -13 17 -5 20 6 2 8 8 5 13 -3
6 -11 5 -20 -2 -8 -6 -17 -9 -21 -5 -3 3 -1 6 6 6 7 0 10 4 7 9 -7 11 13 9 33
-3 11 -7 13 -5 8 7 -4 10 -2 16 6 14 7 -1 11 5 9 13 -3 11 -1 12 8 3 10 -9 7
-17 -9 -34 -23 -25 -29 -48 -8 -32 18 15 49 13 36 -3 -7 -8 -7 -14 1 -19 5 -3
10 -1 10 6 0 7 3 9 7 5 5 -4 1 -13 -7 -19 -8 -7 -16 -21 -18 -32 -2 -19 -1
-19 17 2 16 19 20 20 25 7 3 -8 2 -12 -4 -9 -16 10 -12 -5 9 -31 10 -13 22
-20 26 -16 5 4 5 1 1 -6 -4 -7 1 -23 12 -37 21 -27 19 -70 -3 -61 -7 2 -22 -2
-34 -10 -11 -8 -21 -11 -21 -7 0 13 40 34 52 27 6 -4 9 -1 6 7 -3 8 -17 14
-32 14 -17 1 -25 -3 -22 -12 3 -7 -1 -10 -9 -7 -10 4 -13 0 -10 -15 2 -12 6
-25 9 -29 9 -14 -10 -33 -27 -26 -9 3 -15 10 -12 14 3 4 -3 14 -12 21 -14 12
-16 12 -11 -2 3 -9 2 -22 -4 -30 -8 -12 -9 -12 -5 1 2 8 -6 27 -18 42 -18 21
-22 37 -20 82 1 43 -2 56 -11 52 -8 -3 -16 -1 -19 4 -4 6 -12 10 -18 10 -7 -1
-2 -9 11 -19 22 -19 31 -38 12 -26 -5 3 -10 1 -10 -4 0 -6 5 -11 10 -11 6 0
10 -5 10 -11 0 -8 -4 -8 -13 0 -11 8 -14 4 -14 -20 0 -30 1 -31 15 -13 12 16
14 16 9 2 -4 -11 4 -29 20 -48 20 -25 23 -34 14 -43 -10 -9 -12 -8 -9 7 1 10
-3 21 -10 23 -7 3 -12 1 -11 -4 3 -20 -2 -37 -9 -28 -4 6 -14 10 -22 10 -9 0
-14 7 -12 19 3 17 2 18 -12 7 -12 -11 -14 -17 -5 -27 7 -9 8 -14 1 -14 -6 0
-12 5 -14 10 -2 7 -10 6 -21 -2 -15 -11 19 -14 205 -14 149 0 227 3 234 11 9
9 56 140 60 170 1 6 3 12 4 15 1 3 4 16 5 30 12 119 19 157 29 169 7 10 7 13
0 8 -7 -4 -11 8 -12 35 -1 23 -4 43 -7 46 -2 3 0 13 6 23 7 14 6 19 -3 19 -9
0 -9 3 0 12 7 7 12 17 12 22 0 6 -5 4 -10 -4 -9 -13 -10 -13 -11 0 0 8 -3 24
-5 35 -3 11 -6 34 -8 50 -2 17 -9 44 -16 60 -6 17 -13 35 -14 40 -1 6 -5 16
-9 23 -5 7 -2 14 7 17 9 3 23 7 32 10 9 3 14 8 11 12 -4 3 1 12 11 20 15 13
15 13 -6 3 -12 -6 -20 -15 -17 -21 4 -5 0 -9 -9 -9 -8 0 -22 -3 -30 -6 -12 -5
-15 -2 -10 10 3 9 11 13 17 9 6 -3 7 -1 3 5 -4 6 -13 9 -20 6 -14 -5 -42 50
-36 71 1 6 3 15 3 22 0 7 6 14 13 17 7 3 11 -2 9 -12 -2 -9 -4 -17 -5 -17 -1
0 -3 -8 -5 -18 -2 -10 1 -14 8 -10 7 4 8 0 4 -11 -4 -11 -3 -15 4 -11 6 4 8
13 5 21 -3 8 3 20 14 26 22 14 27 30 9 26 -6 -2 -13 2 -16 9 -6 16 26 10 39
-8 8 -11 9 -11 4 3 -4 13 4 22 25 34 17 8 28 18 25 22 -4 3 -12 0 -18 -6 -17
-17 -33 -15 -19 1 6 8 7 18 3 22 -4 5 1 5 11 2 10 -4 16 -3 12 2 -3 5 -1 12 5
16 5 3 10 -2 10 -12 0 -15 2 -16 10 -3 6 9 5 17 -1 21 -7 4 -5 8 4 12 11 4 14
-1 12 -19 -1 -13 2 -27 8 -31 6 -3 7 -1 4 4 -5 9 58 103 69 103 2 0 3 -10 1
-22 -1 -17 3 -22 20 -23 13 0 22 4 22 9 0 5 5 13 13 18 10 8 10 9 -2 5 -8 -2
-14 -9 -13 -15 2 -6 -6 -10 -16 -9 -15 1 -18 7 -16 27 2 14 4 29 4 33 1 5 6 5
11 2 6 -3 10 -1 10 5 0 6 5 8 13 4 9 -6 9 -5 0 8 -7 8 -10 18 -6 21 3 4 13 -2
20 -13 17 -24 35 -17 32 13 -2 37 1 48 11 42 6 -3 10 -1 10 5 0 6 5 8 13 4 9
-6 9 -4 -1 8 -8 10 -9 19 -4 22 6 3 13 -1 16 -10 4 -9 9 -14 13 -11 3 4 0 13
-7 22 -15 18 0 20 20 3 12 -11 12 -10 1 5 -15 19 -2 24 17 5 9 -9 12 -9 12 0
0 7 -5 12 -11 12 -5 0 -7 5 -3 12 5 7 11 5 21 -7 7 -11 13 -14 13 -9 0 6 -5
15 -12 22 -8 8 -8 15 2 27 16 19 30 19 30 1 0 -20 17 -29 26 -15 4 7 3 9 -3 6
-12 -8 -24 28 -16 49 3 8 10 11 16 7 6 -3 7 -1 3 6 -4 6 -12 9 -17 6 -5 -4 -9
0 -9 7 0 8 -3 9 -8 3 -15 -21 -32 -15 -28 8 4 21 0 24 -22 23 -20 -1 -26 3
-24 17 2 9 -3 17 -9 17 -7 0 -9 -3 -6 -7 4 -3 2 -12 -4 -20 -6 -7 -8 -13 -4
-13 5 0 0 -9 -9 -19 -10 -11 -15 -25 -11 -30 5 -10 -7 -15 -27 -12 -5 0 -8 -4
-8 -10 0 -6 8 -8 19 -4 11 3 22 1 26 -4 3 -7 0 -8 -9 -5 -21 8 -20 -5 2 -29
16 -19 16 -20 -4 -9 -12 6 -25 8 -29 4 -4 -4 -5 2 -3 12 1 10 -3 21 -10 24
-15 5 -13 -28 2 -39 4 -4 3 -10 -3 -13 -6 -4 -11 -3 -11 3 0 5 -12 -1 -27 -15
-19 -17 -29 -21 -34 -13 -4 7 -24 13 -44 15 -50 3 -92 -34 -75 -67 8 -14 8
-24 1 -33 -11 -13 -5 -26 11 -26 5 0 7 4 3 9 -6 10 17 36 37 44 7 2 10 8 6 12
-4 4 -14 3 -22 -4 -11 -9 -15 -8 -20 6 -10 25 18 42 62 38 20 -2 39 -3 41 -4
2 -1 -2 -8 -9 -16 -12 -15 -4 -20 23 -16 4 0 7 -3 7 -9 0 -6 3 -9 8 -9 19 3
33 -2 27 -11 -4 -6 -22 -2 -47 11 -22 11 -37 16 -33 10 5 -10 -7 -15 -27 -12
-5 0 -8 -3 -8 -9 0 -6 -3 -9 -7 -9 -21 3 -24 -3 -12 -18 13 -17 13 -17 -5 -3
-11 8 -17 10 -13 3 4 -6 3 -14 -2 -18 -6 -3 -8 -11 -5 -19 3 -7 -2 -13 -10
-13 -8 0 -18 7 -20 14 -4 9 -1 11 5 7 7 -4 10 -1 7 7 -3 8 -12 13 -20 11 -9
-1 -21 5 -28 13 -7 8 -17 15 -23 15 -6 0 5 -16 26 -36 30 -29 35 -39 26 -51
-10 -11 -14 -11 -25 5 -10 15 -25 18 -81 17 -70 0 -93 -7 -93 -28 0 -8 3 -8
12 1 7 7 16 12 21 12 5 0 2 -6 -5 -13 -19 -19 -57 -17 -50 3 5 13 3 13 -14 0
-11 -8 -14 -8 -8 -1 12 13 8 51 -5 51 -4 0 -12 -5 -17 -10 -8 -8 -15 -5 -25 7
-13 16 -12 17 3 4 15 -11 19 -11 24 2 5 15 8 15 28 1 21 -13 25 -12 50 7 21
17 24 24 15 35 -12 14 -29 10 -29 -7 0 -6 6 -7 13 -3 6 4 5 -1 -4 -10 -16 -17
-49 -13 -49 7 0 7 4 7 12 -1 17 -17 33 -15 18 3 -9 11 -9 15 -1 15 7 0 9 5 6
10 -4 6 -2 9 3 8 15 -4 74 81 67 95 -4 7 0 4 8 -5 17 -21 31 -24 24 -5 -3 7 1
21 9 32 8 10 14 14 14 9 0 -6 -5 -15 -11 -21 -8 -8 -4 -11 15 -10 30 2 30 2
15 29 -8 15 -8 19 0 14 6 -4 11 -3 11 2 0 14 37 3 51 -14 16 -19 24 -17 26 6
1 11 -2 18 -7 15 -5 -3 -22 1 -37 9 l-28 15 25 -1 c14 0 32 2 41 6 10 4 23 0
33 -10 19 -19 16 -40 -5 -37 -9 2 -15 -6 -16 -17 -2 -17 1 -18 17 -10 26 14
40 41 31 60 -4 8 -7 33 -6 55 1 40 -11 69 -25 60 -4 -3 -14 3 -21 13 -12 15
-12 16 1 6 8 -6 23 -10 33 -9 9 2 15 -1 12 -5 -3 -5 4 -14 15 -20 18 -10 21
-9 18 7 -2 10 -7 22 -13 26 -6 5 -4 7 5 4 8 -2 14 -10 12 -17 -2 -7 3 -10 11
-7 10 4 13 -4 13 -28 -1 -18 -4 -37 -9 -41 -16 -17 -6 -26 12 -10 24 22 22 81
-4 100 -20 15 -13 35 13 35 9 0 29 2 44 5 16 2 28 0 28 -6 0 -5 -10 -6 -22 -2
-20 6 -21 5 -9 -9 7 -9 17 -14 22 -11 5 3 9 0 9 -5 0 -6 -6 -11 -13 -11 -7 0
-13 -8 -14 -18 -2 -25 52 -22 72 4 8 10 15 15 14 9 -3 -22 2 -29 11 -15 8 13
10 12 10 -2 0 -10 7 -18 16 -18 13 0 14 -3 4 -15 -10 -12 -8 -13 10 -10 16 3
24 -1 27 -15 3 -11 8 -18 12 -15 7 3 83 -45 119 -75 6 -6 12 -8 12 -5 0 3 15
-2 33 -11 55 -29 63 -32 106 -44 28 -7 39 -15 35 -23 -5 -9 -4 -9 5 -1 14 13
85 0 110 -20 8 -6 12 -6 9 -1 -4 6 35 10 110 10 65 0 135 3 158 7 62 11 179
54 177 66 -1 5 6 8 17 5 10 -3 25 0 32 7 7 6 28 20 46 31 28 17 33 25 31 52
-2 18 -7 38 -12 45 -6 7 -6 12 0 12 5 0 9 18 9 40 0 22 -4 40 -9 40 -5 0 -3 8
4 17 10 11 10 14 2 9 -14 -8 -18 6 -5 18 10 11 11 130 0 137 -4 3 -28 4 -53 3
-61 -3 -76 28 -50 101 6 17 4 16 -15 -4 -11 -13 -19 -30 -16 -37 3 -7 0 -11
-7 -8 -8 3 -13 -5 -14 -17 -2 -16 1 -19 9 -11 9 9 16 4 29 -17 16 -27 21 -29
70 -26 29 2 47 0 40 -5 -10 -6 -10 -9 -1 -15 17 -11 -10 -26 -33 -19 -16 5
-17 3 -6 -14 7 -12 15 -20 18 -20 19 2 27 -4 27 -22 0 -18 -8 -24 -28 -21 -5
0 -8 -6 -8 -15 0 -8 4 -13 9 -9 5 3 13 0 17 -6 5 -8 3 -9 -6 -4 -9 6 -11 4 -5
-5 6 -9 4 -11 -4 -5 -10 6 -11 3 -2 -12 6 -11 7 -24 3 -28 -4 -5 -2 -5 5 -1 7
4 9 14 6 24 -3 9 -3 14 2 10 11 -10 15 -58 5 -58 -4 0 -13 7 -20 15 -7 8 -9
15 -6 15 4 0 -5 10 -20 23 -21 19 -27 33 -28 70 -1 27 -9 54 -17 62 -19 20
-62 29 -56 12 2 -7 11 -11 20 -9 21 4 32 -16 33 -61 2 -36 1 -37 -13 -18 -10
15 -11 26 -4 40 10 18 6 31 -11 31 -5 0 -7 -4 -4 -8 2 -4 1 -14 -3 -21 -6 -9
-11 -10 -15 -2 -4 6 -2 11 5 11 8 0 8 4 -1 15 -15 18 -34 20 -24 3 4 -6 -4 -3
-18 8 -14 10 -24 22 -22 25 2 4 -6 10 -19 13 -12 3 -33 15 -47 26 -18 15 -20
18 -6 13 13 -4 17 -3 12 5 -4 7 -2 12 4 12 6 0 10 -7 8 -16 -2 -10 2 -19 8
-21 13 -5 15 28 1 45 -15 19 4 14 20 -5 14 -17 14 -17 8 2 -13 38 -14 55 -3
55 5 0 8 -7 5 -15 -3 -7 3 -24 13 -37 11 -13 19 -18 20 -13 0 6 -5 16 -12 23
-9 9 -9 15 0 24 9 9 7 14 -5 23 -13 10 -13 14 -3 20 8 5 11 4 6 -3 -6 -10 30
-28 47 -24 5 1 6 -2 2 -8 -3 -5 -1 -10 5 -10 6 0 10 8 8 18 -2 9 -11 16 -20
14 -9 -1 -19 2 -23 8 -3 6 0 7 9 4 9 -3 16 -2 16 4 0 6 -6 13 -12 15 -10 4
-10 6 -1 6 7 1 17 -8 23 -19 6 -11 16 -20 22 -20 6 0 3 11 -6 25 -10 15 -12
25 -6 25 6 0 8 5 5 10 -3 6 -1 10 5 10 7 0 9 -8 5 -22 -7 -22 -6 -22 11 -6 15
15 15 19 3 35 -13 17 -13 17 5 3 17 -14 18 -13 12 6 -5 15 -2 24 9 28 10 3 13
11 9 18 -6 10 -4 10 6 1 12 -11 11 -15 -6 -28 -10 -8 -14 -15 -8 -15 23 0 44
25 38 47 -4 13 -11 20 -17 16 -6 -3 -7 -1 -3 6 9 14 26 5 26 -14 0 -7 9 -17
21 -20 16 -5 18 -10 8 -21 -9 -11 -9 -14 1 -14 8 0 11 -3 8 -6 -4 -3 -15 -1
-26 5 -16 8 -25 7 -44 -9 l-23 -20 24 -20 c22 -19 41 -19 41 0 0 5 -6 7 -14 4
-18 -7 -32 14 -18 28 7 7 16 6 29 0 10 -6 24 -8 29 -4 15 10 14 184 0 179 -7
-3 -12 4 -12 14 0 13 4 15 12 8 10 -8 12 -3 12 20 -1 19 -5 28 -12 24 -7 -5
-7 -2 1 8 15 19 14 201 -1 192 -6 -4 -5 1 3 10 11 14 11 20 0 34 -8 9 -9 14
-3 10 7 -4 11 27 11 103 l-1 109 -574 1 c-462 0 -572 -2 -566 -12 6 -10 4 -10
-7 -2 -19 15 -111 16 -102 0 5 -8 2 -7 -8 1 -11 8 -185 12 -677 13 l-662 1 0
-691z m1402 668 c-7 -7 -12 -17 -12 -22 1 -6 9 -1 20 12 10 12 21 18 24 13 3
-5 -1 -11 -9 -15 -8 -3 -12 -11 -9 -19 3 -8 -3 -20 -13 -27 -15 -12 -16 -12
-5 0 24 27 12 35 -13 8 -29 -31 -31 -40 -10 -32 8 4 15 2 15 -4 0 -6 -8 -9
-17 -8 -10 2 -18 11 -18 21 0 10 -6 20 -14 23 -9 3 -11 0 -6 -8 5 -8 4 -11 -3
-6 -6 4 -9 13 -5 22 5 13 8 13 24 -2 11 -9 19 -12 19 -6 0 6 -4 14 -10 17 -5
3 -10 12 -10 18 0 7 5 4 11 -5 15 -26 32 -23 18 3 -8 15 -8 19 0 15 6 -4 11
-2 11 3 0 6 5 11 12 11 9 0 9 -3 0 -12z m-75 -4 c-3 -3 -12 -4 -19 -1 -8 3 -5
6 6 6 11 1 17 -2 13 -5z m1240 -206 c2 -18 0 -20 -7 -8 -12 18 -13 30 -2 30 4
0 9 -10 9 -22z m-37 -12 c0 -2 -8 -10 -17 -17 -16 -13 -17 -12 -4 4 13 16 21
21 21 13z m17 -43 c0 -9 -4 -10 -14 -2 -7 6 -13 12 -13 14 0 1 6 2 13 2 8 0
14 -6 14 -14z m36 -38 c-7 -21 -12 -19 -10 4 0 11 5 18 9 15 4 -3 5 -11 1 -19z
m-37 -7 c4 -7 3 -8 -5 -4 -6 4 -20 2 -29 -6 -15 -12 -16 -11 -3 5 16 20 27 22
37 5z m-61 -16 c-3 -3 -11 0 -18 7 -9 10 -8 11 6 5 10 -3 15 -9 12 -12z m-78
-9 c-4 -3 -1 -13 6 -22 11 -14 10 -14 -5 -2 -21 15 -23 31 -6 31 6 0 8 -3 5
-7z m143 1 c0 -8 -19 -13 -24 -6 -3 5 1 9 9 9 8 0 15 -2 15 -3z m35 -3 c3 -5
2 -12 -3 -15 -5 -3 -9 1 -9 9 0 17 3 19 12 6z m-255 -41 c0 -5 -2 -10 -4 -10
-3 0 -8 5 -11 10 -3 6 -1 10 4 10 6 0 11 -4 11 -10z m50 0 c-8 -5 -19 -10 -25
-10 -5 0 -3 5 5 10 8 5 20 10 25 10 6 0 3 -5 -5 -10z m190 6 c0 -2 -7 -7 -16
-10 -8 -3 -12 -2 -9 4 6 10 25 14 25 6z m-150 -20 c0 -2 -9 -6 -20 -9 -11 -3
-18 -1 -14 4 5 9 34 13 34 5z m40 -1 c0 -2 -6 -8 -13 -14 -10 -8 -14 -7 -14 2
0 8 6 14 14 14 7 0 13 -1 13 -2z m-123 -23 c-10 -10 -15 -21 -12 -24 3 -2 -2
-5 -10 -5 -10 0 -12 4 -5 12 5 7 6 16 2 20 -4 5 -2 5 5 1 6 -3 14 -2 18 4 3 5
9 10 12 10 3 0 -1 -8 -10 -18z m209 -1 c0 -16 -3 -17 -14 -9 -12 10 -7 19 13
28 1 0 1 -9 1 -19z m-125 -8 c13 -16 12 -17 -3 -4 -10 7 -18 15 -18 17 0 8 8
3 21 -13z m-53 -6 c8 -10 6 -13 -11 -14 -12 0 -16 1 -9 4 6 3 10 9 6 14 -8 14
2 11 14 -4z m139 -22 c0 -8 -4 -12 -9 -9 -5 3 -6 10 -3 15 9 13 12 11 12 -6z
m-211 -7 c3 -4 -1 -5 -10 -4 -8 1 -18 5 -22 8 -3 4 1 5 10 4 8 -1 18 -5 22 -8z
m195 -15 c13 -16 12 -17 -3 -4 -10 7 -18 15 -18 17 0 8 8 3 21 -13z m-156 -3
c-4 -6 -1 -19 6 -28 12 -16 12 -16 -5 0 -16 14 -15 38 0 38 3 0 2 -5 -1 -10z
m30 1 c3 -5 2 -12 -3 -15 -5 -3 -9 1 -9 9 0 17 3 19 12 6z m92 -23 c-3 -8 -6
-5 -6 6 -1 11 2 17 5 13 3 -3 4 -12 1 -19z m-234 -13 c-7 -21 -12 -19 -10 4 0
11 5 18 9 15 4 -3 5 -11 1 -19z m57 15 c8 -5 11 -10 5 -10 -5 0 -17 5 -25 10
-8 5 -10 10 -5 10 6 0 17 -5 25 -10z m212 -29 c-4 -10 -7 -11 -10 -3 -2 7 -9
9 -14 6 -6 -4 -8 -3 -5 3 10 16 36 11 29 -6z m-129 -21 c10 -12 9 -12 -4 -2
-9 6 -18 9 -21 6 -3 -3 -9 -1 -12 4 -9 15 22 8 37 -8z m-73 6 c0 -2 -8 -10
-17 -17 -16 -13 -17 -12 -4 4 13 16 21 21 21 13z m-70 -12 c0 0 -9 -9 -20 -19
-20 -18 -21 -18 -14 0 6 14 4 16 -6 10 -8 -5 -11 -4 -7 1 4 7 47 15 47 8z
m232 -1 c-6 -3 -9 -10 -5 -16 4 -7 -1 -6 -10 2 -21 17 -21 17 6 18 12 0 16 -1
9 -4z m43 -3 c3 -6 -1 -7 -9 -4 -18 7 -21 14 -7 14 6 0 13 -4 16 -10z m40 0
c-3 -5 -12 -10 -18 -10 -7 0 -6 4 3 10 19 12 23 12 15 0z m-228 -19 c-1 -15
-4 -17 -14 -9 -15 12 -17 22 -3 13 6 -3 10 -1 10 4 0 6 2 11 4 11 3 0 4 -9 3
-19z m53 4 c0 -1 -6 -7 -13 -13 -10 -8 -13 -6 -13 7 0 11 6 17 13 14 7 -3 13
-6 13 -8z m-110 -5 c0 -5 -2 -10 -4 -10 -3 0 -8 5 -11 10 -3 6 -1 10 4 10 6 0
11 -4 11 -10z m230 6 c0 -2 -8 -10 -17 -17 -16 -13 -17 -12 -4 4 13 16 21 21
21 13z m99 -10 c9 -10 8 -15 -3 -19 -11 -4 -13 -1 -9 10 4 11 2 14 -5 9 -7 -4
-12 -2 -12 3 0 15 15 14 29 -3z m-434 -44 c-11 -9 -14 -10 -7 -2 15 18 16 34
0 24 -7 -5 -8 -3 -3 5 5 9 10 10 18 2 8 -8 6 -16 -8 -29z m239 -2 c-6 -6 -10
-3 -10 10 0 13 4 16 10 10 7 -7 7 -13 0 -20z m-170 12 c3 -5 -1 -9 -9 -9 -8 0
-12 4 -9 9 3 4 7 8 9 8 2 0 6 -4 9 -8z m240 0 c3 -5 -1 -9 -9 -9 -8 0 -15 4
-15 9 0 4 4 8 9 8 6 0 12 -4 15 -8z m-209 -60 c-3 -3 3 -14 12 -26 18 -20 18
-20 -9 0 -14 10 -22 21 -16 23 5 1 1 13 -9 25 l-18 21 23 -19 c12 -11 20 -21
17 -24z m106 21 c8 -9 9 -14 2 -10 -6 4 -13 1 -16 -5 -3 -7 -4 -3 -4 10 1 26
1 26 18 5z m124 -1 c-3 -3 -11 0 -18 7 -9 10 -8 11 6 5 10 -3 15 -9 12 -12z
m-389 -42 c0 -27 -3 -50 -6 -50 -3 0 -6 23 -6 50 0 28 3 50 6 50 3 0 6 -22 6
-50z m121 27 c0 -8 -6 -14 -14 -14 -9 0 -10 4 -2 14 6 7 12 13 14 13 1 0 2 -6
2 -13z m243 4 c0 -5 -7 -12 -16 -15 -14 -5 -15 -4 -4 9 14 17 20 19 20 6z
m-290 -16 c7 -9 8 -15 2 -15 -5 0 -12 7 -16 15 -3 8 -4 15 -2 15 2 0 9 -7 16
-15z m127 9 c-3 -3 -12 -4 -19 -1 -8 3 -5 6 6 6 11 1 17 -2 13 -5z m93 2 c0
-2 -8 -10 -17 -17 -16 -13 -17 -12 -4 4 13 16 21 21 21 13z m-1177 -21 c-3 -9
-8 -14 -10 -11 -3 3 -2 9 2 15 9 16 15 13 8 -4z m1103 6 c-4 -5 -1 -11 6 -13
8 -3 6 -6 -4 -10 -11 -5 -15 -2 -13 10 5 23 4 22 11 22 3 0 3 -4 0 -9z m-1019
-16 c-1 -5 4 -9 11 -7 8 1 11 -2 7 -8 -4 -6 -15 -4 -31 6 -29 20 -29 20 -5 20
11 0 19 -5 18 -11z m1057 -1 c3 -8 2 -12 -4 -9 -6 3 -10 10 -10 16 0 14 7 11
14 -7z m-219 -22 c-3 -3 -11 0 -18 7 -9 10 -8 11 6 5 10 -3 15 -9 12 -12z m45
14 c0 -2 -7 -7 -16 -10 -8 -3 -12 -2 -9 4 6 10 25 14 25 6z m38 -13 c-12 -15
-22 -18 -14 -4 4 5 0 11 -6 14 -7 3 -3 4 9 4 17 -1 19 -4 11 -14z m-27 -20
c13 -16 12 -17 -3 -4 -10 7 -18 15 -18 17 0 8 8 3 21 -13z m123 1 c3 -8 2 -12
-4 -9 -6 3 -10 10 -10 16 0 14 7 11 14 -7z m37 -7 c-10 -9 -11 -8 -5 6 3 10 9
15 12 12 3 -3 0 -11 -7 -18z m-1092 0 c8 -10 7 -14 -2 -14 -8 0 -14 6 -14 14
0 7 1 13 2 13 2 0 8 -6 14 -13z m46 -7 c-4 -6 -1 -19 7 -28 11 -15 11 -15 -3
-5 -9 7 -19 10 -22 6 -4 -3 -7 -2 -7 3 0 10 20 34 28 34 2 0 0 -5 -3 -10z
m-134 -27 c13 -16 12 -17 -3 -4 -10 7 -18 15 -18 17 0 8 8 3 21 -13z m1149 5
c0 -3 -9 -6 -20 -5 -11 1 -20 5 -20 9 0 3 9 6 20 5 11 -1 20 -5 20 -9z m-1095
-18 c-4 -6 -1 -19 6 -28 12 -16 12 -16 -5 0 -16 14 -15 38 0 38 3 0 2 -5 -1
-10z m30 1 c3 -5 2 -12 -3 -15 -5 -3 -9 1 -9 9 0 17 3 19 12 6z m-55 -5 c0 -2
-8 -10 -17 -17 -16 -13 -17 -12 -4 4 13 16 21 21 21 13z m1057 -11 c0 -8 -4
-12 -9 -9 -5 3 -6 10 -3 15 9 13 12 11 12 -6z m-946 -18 c-10 -9 -11 -8 -5 6
3 10 9 15 12 12 3 -3 0 -11 -7 -18z m-171 -21 c0 -2 -7 -7 -16 -10 -8 -3 -12
-2 -9 4 6 10 25 14 25 6z m11 -19 c-10 -9 -11 -8 -5 6 3 10 9 15 12 12 3 -3 0
-11 -7 -18z m102 3 c10 -12 9 -12 -3 -3 -8 6 -23 9 -33 8 -9 -2 -15 0 -12 5 7
12 33 6 48 -10z m85 -17 c-6 -7 -12 -13 -13 -13 -2 0 -5 6 -8 13 -3 7 3 13 14
13 13 0 15 -3 7 -13z m-234 -9 c3 -8 2 -12 -4 -9 -6 3 -10 10 -10 16 0 14 7
11 14 -7z m146 1 c0 -1 -6 -7 -13 -13 -10 -8 -13 -6 -13 7 0 11 6 17 13 14 7
-3 13 -6 13 -8z m50 1 c0 -3 -4 -8 -10 -11 -5 -3 -10 -1 -10 4 0 6 5 11 10 11
6 0 10 -2 10 -4z m-153 -22 c-3 -3 -12 -4 -19 -1 -8 3 -5 6 6 6 11 1 17 -2 13
-5z m-14 -17 c4 3 7 1 7 -5 0 -17 -16 -15 -31 6 -12 15 -12 16 2 5 9 -7 19
-10 22 -6z m63 -7 c0 -12 -4 -16 -9 -11 -5 5 -6 14 -3 20 10 15 12 14 12 -9z
m-171 0 c-3 -5 -12 -10 -18 -10 -7 0 -6 4 3 10 19 12 23 12 15 0z m231 -2 c3
-4 -1 -5 -10 -4 -8 1 -18 5 -22 8 -3 4 1 5 10 4 8 -1 18 -5 22 -8z m-30 -37
c-13 -14 -14 -20 -5 -23 9 -3 8 -6 -3 -10 -10 -4 -15 -2 -14 7 2 14 25 45 34
45 3 0 -3 -9 -12 -19z m131 6 c0 -8 -6 -14 -14 -14 -9 0 -10 4 -2 14 6 7 12
13 14 13 1 0 2 -6 2 -13z m-364 -22 c-7 -21 -12 -19 -10 4 0 11 5 18 9 15 4
-3 5 -11 1 -19z m121 17 c3 -5 -1 -9 -9 -9 -8 0 -12 4 -9 9 3 4 7 8 9 8 2 0 6
-4 9 -8z m145 -15 c8 -10 7 -14 -2 -14 -8 0 -14 6 -14 14 0 7 1 13 2 13 2 0 8
-6 14 -13z m-147 -11 c10 6 11 4 0 -7 -10 -11 -15 -10 -30 6 -15 17 -15 18 0
6 9 -7 23 -9 30 -5z m74 -6 c0 -12 -4 -16 -9 -11 -5 5 -6 14 -3 20 10 15 12
14 12 -9z m151 -21 c-2 -10 -6 -21 -10 -25 -3 -4 -4 4 -2 16 3 13 -1 31 -8 39
-11 14 -10 14 5 2 10 -7 16 -21 15 -32z m83 16 c0 -7 -8 -16 -17 -20 -15 -5
-16 -4 -5 6 15 16 16 33 0 23 -7 -4 -8 -3 -4 5 9 14 26 5 26 -14z m-363 -2
c-9 -8 -57 -13 -57 -6 0 5 14 9 31 9 16 1 28 0 26 -3z m403 -9 c0 -2 -7 -4
-15 -4 -8 0 -15 4 -15 10 0 5 7 7 15 4 8 -4 15 -8 15 -10z m-320 -15 c0 -5 -4
-9 -8 -9 -5 0 -9 7 -9 15 0 8 4 12 9 9 4 -3 8 -9 8 -15z m240 7 c0 -2 -7 -7
-16 -10 -8 -3 -12 -2 -9 4 6 10 25 14 25 6z m-382 -31 c-3 -3 -9 2 -12 12 -6
14 -5 15 5 6 7 -7 10 -15 7 -18z m35 10 c-3 -9 -8 -14 -10 -11 -3 3 -2 9 2 15
9 16 15 13 8 -4z m205 -10 c-3 -3 -9 2 -12 12 -6 14 -5 15 5 6 7 -7 10 -15 7
-18z m-268 11 c0 -2 -8 -10 -17 -17 -16 -13 -17 -12 -4 4 13 16 21 21 21 13z
m531 -23 c2 1 -1 -3 -8 -9 -7 -6 -11 -13 -8 -15 2 -3 -5 -6 -17 -6 -19 -2 -19
-1 -3 11 12 9 15 18 10 27 -7 11 -6 12 7 2 8 -7 17 -12 19 -10z m-567 -9 c3
-8 2 -12 -4 -9 -6 3 -10 10 -10 16 0 14 7 11 14 -7z m133 10 c-3 -3 -12 -4
-19 -1 -8 3 -5 6 6 6 11 1 17 -2 13 -5z m148 -44 c3 -19 3 -32 0 -28 -3 3 -8
18 -11 34 -3 15 -8 32 -11 38 -4 8 -2 8 5 1 6 -5 14 -26 17 -45z m-215 36 c0
-2 -8 -10 -17 -17 -16 -13 -17 -12 -4 4 13 16 21 21 21 13z m35 -5 c3 -5 2
-12 -3 -15 -5 -3 -9 1 -9 9 0 17 3 19 12 6z m82 -6 c0 -8 -4 -12 -9 -9 -5 3
-6 10 -3 15 9 13 12 11 12 -6z m-17 -20 c14 -19 14 -19 -2 -6 -10 7 -18 18
-18 24 0 6 1 8 3 6 1 -2 9 -13 17 -24z m155 -13 c-3 -3 -11 0 -18 7 -9 10 -8
11 6 5 10 -3 15 -9 12 -12z m-379 -11 c0 -16 -3 -17 -14 -9 -12 10 -7 19 13
28 1 0 1 -9 1 -19z m205 5 c14 8 11 -2 -4 -14 -10 -8 -13 -6 -14 11 0 12 1 16
4 9 3 -6 9 -10 14 -6z m219 4 c0 -5 -7 -7 -15 -4 -8 4 -15 8 -15 10 0 2 7 4
15 4 8 0 15 -4 15 -10z m-376 -8 c3 -5 -1 -9 -9 -9 -8 0 -12 4 -9 9 3 4 7 8 9
8 2 0 6 -4 9 -8z m210 -8 c3 -8 2 -12 -4 -9 -6 3 -10 10 -10 16 0 14 7 11 14
-7z m156 -4 c8 -5 12 -11 10 -14 -3 -2 -14 2 -24 10 -22 15 -10 19 14 4z
m-356 -22 c-10 -13 -19 -24 -20 -26 -1 -1 -4 6 -7 17 -3 13 -1 18 8 15 7 -3
16 -1 20 5 3 6 9 11 12 11 3 0 -2 -10 -13 -22z m42 -4 c1 -9 0 -13 -4 -10 -3
4 -7 14 -8 22 -1 9 0 13 4 10 3 -4 7 -14 8 -22z m192 1 c-3 -3 -9 2 -12 12 -6
14 -5 15 5 6 7 -7 10 -15 7 -18z m-338 -9 c14 -18 14 -18 -7 -6 -12 8 -19 18
-16 23 3 4 6 7 7 5 1 -2 8 -12 16 -22z m363 4 c-3 -12 -8 -19 -11 -16 -5 6 5
36 12 36 2 0 2 -9 -1 -20z m56 -11 c-24 -15 -30 -10 -11 9 9 10 19 14 21 9 2
-5 -3 -13 -10 -18z m307 12 c21 3 26 -2 14 -16 -12 -15 -4 -20 23 -16 4 0 7
-5 7 -11 0 -9 4 -8 10 2 5 8 10 10 10 4 0 -6 -10 -20 -22 -32 -20 -18 -25 -19
-42 -6 -11 8 -18 14 -15 15 2 0 12 2 22 4 9 2 17 -1 17 -6 0 -6 5 -7 11 -3 8
4 7 9 -2 15 -7 4 -17 5 -21 3 -4 -3 -8 0 -8 6 0 7 -7 9 -16 6 -8 -3 -13 -2
-10 2 3 5 -1 9 -9 9 -13 0 -13 -3 1 -18 11 -12 12 -19 4 -24 -25 -15 -38 36
-15 55 8 7 12 17 8 24 -4 6 0 6 9 -2 9 -7 20 -12 24 -11z m-685 -14 c-10 -9
-11 -8 -5 6 3 10 9 15 12 12 3 -3 0 -11 -7 -18z m429 2 c0 -4 -7 -6 -15 -3 -8
4 -15 10 -15 15 0 4 7 6 15 3 8 -4 15 -10 15 -15z m-506 -11 c-5 -8 -1 -9 12
-4 14 5 16 4 7 -5 -13 -13 -37 -3 -28 12 4 5 8 9 11 9 3 0 2 -5 -2 -12z m198
-2 c10 6 11 4 0 -7 -10 -11 -15 -10 -30 6 -15 17 -15 18 0 6 9 -7 23 -9 30 -5z
m153 5 c-9 -8 -36 -10 -30 -2 2 4 11 8 20 8 8 0 13 -3 10 -6z m-65 -5 c0 -2
-8 -10 -17 -17 -16 -13 -17 -12 -4 4 13 16 21 21 21 13z m-249 -29 c-10 -9
-11 -8 -5 6 3 10 9 15 12 12 3 -3 0 -11 -7 -18z m43 7 c3 -8 2 -12 -4 -9 -6 3
-10 10 -10 16 0 14 7 11 14 -7z m316 10 c0 -8 -19 -13 -24 -6 -3 5 1 9 9 9 8
0 15 -2 15 -3z m-92 -17 c8 -10 6 -13 -11 -14 -12 0 -16 1 -9 4 6 3 10 9 6 14
-8 14 2 11 14 -4z m-45 -22 c-3 -9 -8 -14 -10 -11 -3 3 -2 9 2 15 9 16 15 13
8 -4z m82 6 c3 -5 2 -12 -3 -15 -5 -3 -9 1 -9 9 0 17 3 19 12 6z m-242 -21
c10 -10 9 -11 -3 -4 -8 5 -21 9 -28 10 -8 2 -17 5 -20 8 -3 4 4 5 16 3 12 -2
28 -9 35 -17z m667 -1 c0 -5 0 -11 0 -14 0 -3 -3 -5 -7 -4 -5 1 -7 5 -6 10 2
4 -4 6 -13 2 -12 -4 -13 -8 -3 -14 10 -6 7 -13 -12 -28 -13 -11 -28 -20 -34
-21 -5 0 -4 4 3 9 11 6 10 10 -4 15 -10 4 -21 1 -25 -5 -4 -7 -13 -8 -20 -4
-8 5 -5 -1 5 -13 18 -21 10 -32 -10 -12 -6 6 -15 5 -24 -1 -12 -9 -12 -10 3
-5 13 4 16 2 11 -7 -4 -6 -4 -9 1 -5 15 14 41 -11 43 -44 4 -50 -20 -21 -27
33 -1 3 -8 6 -16 7 -8 1 -22 3 -30 4 -8 1 -15 5 -15 8 0 4 7 13 15 20 8 7 15
9 15 4 0 -4 7 1 15 12 8 10 15 15 15 10 0 -5 9 -1 20 9 11 10 20 14 20 9 0 -6
9 -10 20 -11 25 -2 25 5 3 30 -10 11 -13 18 -8 14 6 -3 17 -2 25 3 15 9 40 3
40 -11z m-820 -5 c0 -8 -19 -13 -24 -6 -3 5 1 9 9 9 8 0 15 -2 15 -3z m42 -1
c-6 -3 -9 -10 -5 -16 4 -7 -1 -6 -10 2 -21 17 -21 17 6 18 12 0 16 -1 9 -4z
m42 -5 c-3 -5 0 -17 8 -26 12 -15 11 -16 -4 -3 -15 11 -21 11 -35 0 -17 -13
-17 -13 0 7 9 11 15 23 12 26 -3 2 2 5 10 5 8 0 12 -4 9 -9z m31 3 c3 -5 2
-12 -3 -15 -5 -3 -9 1 -9 9 0 17 3 19 12 6z m83 -8 c-6 -7 -12 -13 -13 -13 -2
0 -5 6 -8 13 -3 7 3 13 14 13 13 0 15 -3 7 -13z m43 4 c-7 -7 -5 -15 7 -24 16
-13 15 -14 -2 -5 -23 12 -30 39 -10 39 10 0 11 -4 5 -10z m94 -27 c3 -6 -1 -7
-9 -4 -18 7 -21 14 -7 14 6 0 13 -4 16 -10z m-135 -9 c0 -6 -4 -12 -8 -15 -5
-3 -9 1 -9 9 0 8 4 15 9 15 4 0 8 -4 8 -9z m35 -20 c-6 -5 -25 10 -25 20 0 5
6 4 14 -3 8 -7 12 -15 11 -17z m500 9 c-3 -6 1 -13 10 -16 13 -6 14 -8 3 -15
-21 -14 -25 -11 -23 14 3 26 3 27 11 27 3 0 2 -5 -1 -10z m-632 -31 c-8 -8
-13 -7 -18 2 -6 8 -4 10 5 4 10 -6 12 -4 6 11 -6 15 -5 17 5 7 9 -10 10 -16 2
-24z m113 9 c4 -7 4 -10 -1 -6 -4 4 -14 3 -22 -3 -8 -8 -13 -8 -13 -1 0 6 6
13 13 15 6 3 13 6 14 6 1 1 5 -5 9 -11z m97 -3 c-3 -9 -8 -14 -10 -11 -3 3 -2
9 2 15 9 16 15 13 8 -4z m-112 -21 c20 6 21 5 7 -4 -10 -6 -25 -10 -34 -8 -9
2 -19 -2 -21 -8 -2 -7 6 -10 22 -8 15 1 24 0 21 -4 -10 -9 -46 -10 -52 -1 -2
5 1 17 8 28 8 13 15 16 19 10 4 -6 17 -8 30 -5z m-61 0 c0 -8 -19 -13 -24 -6
-3 5 1 9 9 9 8 0 15 -2 15 -3z m135 -3 c3 -5 2 -12 -3 -15 -5 -3 -9 1 -9 9 0
17 3 19 12 6z m-33 -18 c-6 -3 -10 -9 -7 -13 3 -5 0 -12 -7 -16 -7 -4 -10 -4
-6 1 4 4 4 13 -2 19 -6 8 -2 12 13 13 12 0 16 -1 9 -4z m398 -4 c0 -5 4 -8 8
-5 4 2 14 0 22 -6 13 -8 13 -9 -1 -5 -9 3 -16 -1 -16 -8 0 -7 7 -11 16 -8 9 2
6 -2 -6 -9 -12 -7 -23 -17 -24 -23 -3 -17 -68 -91 -65 -75 4 29 27 61 38 54 8
-5 9 -1 5 10 -4 10 -1 19 9 23 13 5 13 7 2 14 -10 7 -10 9 0 9 6 0 12 5 12 11
0 8 -5 8 -15 -1 -8 -7 -12 -16 -9 -21 3 -5 1 -9 -4 -9 -17 0 -22 13 -9 29 11
14 10 14 -6 2 -12 -9 -21 -11 -28 -4 -9 9 0 13 44 14 9 0 15 4 12 10 -4 5 -1
9 4 9 6 0 11 -5 11 -11z m-42 -60 c1 -8 -9 -27 -23 -43 -14 -16 -25 -26 -25
-23 0 8 -54 -46 -56 -55 -1 -5 -3 -10 -4 -13 -1 -3 -3 -10 -4 -17 0 -6 -16
-13 -34 -14 -36 -3 -65 -21 -56 -35 9 -15 -7 -10 -24 8 -16 16 -16 16 3 10 20
-7 20 -7 1 8 -11 8 -22 15 -25 15 -3 0 -11 11 -18 25 -6 14 -7 25 -2 25 5 0 9
-4 9 -10 0 -5 4 -10 8 -10 5 0 9 7 9 15 0 20 -27 28 -45 13 -11 -9 -14 -9 -9
-1 4 7 0 16 -10 22 -15 9 -14 10 9 7 14 -2 36 -9 47 -16 15 -8 26 -8 39 0 12
8 13 10 2 8 -21 -3 -60 12 -60 23 0 5 10 3 23 -4 12 -8 32 -13 44 -12 12 1 22
-1 21 -4 -2 -16 3 -31 10 -30 20 3 32 -2 26 -12 -4 -8 -9 -7 -15 2 -7 12 -9
11 -9 -1 -1 -12 -3 -11 -11 3 -8 13 -15 15 -28 7 -10 -5 -21 -7 -25 -5 -3 3
-4 2 -1 -2 3 -3 0 -12 -6 -20 -9 -10 -7 -18 4 -11 1 1 12 -4 23 -10 25 -13 39
-5 23 14 -8 10 -6 12 10 11 12 -1 20 -6 17 -12 -6 -16 17 -15 32 2 8 8 9 13 2
13 -6 0 -3 12 7 26 l17 27 -24 -12 c-22 -11 -23 -10 -7 2 21 17 22 24 3 24 -8
0 -14 -5 -13 -11 1 -5 -7 -11 -18 -13 -15 -3 -17 -2 -6 5 11 8 9 12 -10 18
-13 5 -33 9 -43 9 -11 0 -21 6 -23 13 -3 6 0 12 7 12 6 0 8 -4 5 -10 -3 -5 -2
-10 4 -10 5 0 12 6 15 13 5 10 7 10 12 0 3 -7 10 -13 15 -13 6 0 7 5 4 10 -3
6 -1 10 5 10 7 0 10 -7 6 -15 -6 -17 2 -19 24 -5 12 8 12 10 1 10 -8 0 -11 3
-8 7 4 3 15 -1 25 -10 18 -16 20 -16 36 2 10 11 26 18 36 16 10 -2 21 3 24 11
3 7 2 13 -2 13 -15 -3 -23 1 -18 9 8 14 51 7 54 -9z m-348 -19 c0 -5 -5 -10
-11 -10 -5 0 -7 5 -4 10 3 6 8 10 11 10 2 0 4 -4 4 -10z m152 -102 c-9 -9 -9
-15 1 -26 10 -13 9 -14 -9 -4 -12 6 -23 10 -25 9 -2 -1 5 6 16 15 23 20 35 24
17 6z m42 -77 c3 -5 -2 -15 -12 -22 -15 -12 -16 -12 -5 2 7 9 10 19 6 22 -3 4
-4 7 0 7 3 0 8 -4 11 -9z m-324 -245 c0 -2 -8 -10 -17 -17 -16 -13 -17 -12 -4
4 13 16 21 21 21 13z m-69 -49 c-10 -9 -11 -8 -5 6 3 10 9 15 12 12 3 -3 0
-11 -7 -18z m64 -36 c3 -5 2 -12 -3 -15 -5 -3 -9 1 -9 9 0 17 3 19 12 6z m-29
-13 c3 -4 -1 -5 -10 -4 -8 1 -18 5 -22 8 -3 4 1 5 10 4 8 -1 18 -5 22 -8z
m-39 -30 c-3 -8 -6 -5 -6 6 -1 11 2 17 5 13 3 -3 4 -12 1 -19z m76 -1 c3 -7
-3 -13 -14 -13 -13 0 -15 3 -7 13 6 7 12 13 13 13 2 0 5 -6 8 -13z m-570 -22
c-3 -9 -8 -14 -10 -11 -3 3 -2 9 2 15 9 16 15 13 8 -4z m428 -27 c-11 -11 -13
-10 -7 0 4 7 2 21 -5 30 -12 15 -11 15 6 0 16 -15 17 -20 6 -30z m96 27 c0 -8
-3 -13 -5 -10 -3 3 -10 0 -17 -5 -8 -7 -12 -5 -12 5 0 8 4 12 8 9 4 -2 10 0
14 6 9 14 12 13 12 -5z m40 -30 c0 -8 -4 -12 -9 -9 -5 3 -6 10 -3 15 9 13 12
11 12 -6z m-226 -22 c13 -16 12 -17 -3 -4 -17 13 -22 21 -14 21 2 0 10 -8 17
-17z m120 -6 c-10 -9 -11 -8 -5 6 3 10 9 15 12 12 3 -3 0 -11 -7 -18z m-155
-22 c1 -8 -1 -17 -5 -19 -4 -3 -7 6 -7 19 0 25 8 25 12 0z m55 -2 c-12 -20
-14 -14 -5 12 4 9 9 14 11 11 3 -2 0 -13 -6 -23z m206 7 c1 -11 -1 -22 -5 -24
-4 -2 -8 7 -8 20 -1 13 1 24 5 24 4 0 7 -9 8 -20z m-151 -20 c0 -12 -4 -16 -9
-11 -5 5 -6 14 -3 20 10 15 12 14 12 -9z m35 -8 c-9 -3 -7 -10 6 -26 18 -21
18 -21 -3 -3 -24 20 -28 48 -5 39 11 -4 11 -7 2 -10z m49 3 c0 -2 -6 -8 -13
-14 -10 -8 -14 -7 -14 2 0 8 6 14 14 14 7 0 13 -1 13 -2z m-237 -20 c-3 -9 -8
-14 -10 -11 -3 3 -2 9 2 15 9 16 15 13 8 -4z m323 -4 c0 -16 -3 -17 -14 -9
-12 10 -7 19 13 28 1 0 1 -9 1 -19z m-289 -17 c-3 -3 -12 -4 -19 -1 -8 3 -5 6
6 6 11 1 17 -2 13 -5z m50 -19 c0 -8 -4 -12 -9 -9 -5 3 -6 10 -3 15 9 13 12
11 12 -6z m199 0 c-1 -8 -5 -17 -8 -21 -5 -4 -4 16 1 34 3 9 9 -1 7 -13z
m-301 -5 c3 -5 1 -10 -4 -10 -6 0 -11 5 -11 10 0 6 2 10 4 10 3 0 8 -4 11 -10z
m56 -7 c13 -16 12 -17 -3 -4 -17 13 -22 21 -14 21 2 0 10 -8 17 -17z m194 7
c3 -6 -1 -7 -9 -4 -18 7 -21 14 -7 14 6 0 13 -4 16 -10z m-285 -15 c0 -7 -30
-13 -34 -7 -3 4 4 9 15 9 10 1 19 0 19 -2z m137 -27 c0 -13 -1 -17 -4 -10 -3
6 -10 9 -16 5 -7 -4 -6 1 2 10 17 21 17 21 18 -5z m53 7 c0 -1 -6 -7 -13 -13
-10 -8 -13 -6 -13 7 0 11 6 17 13 14 7 -3 13 -6 13 -8z m114 -4 c15 -17 15
-19 1 -25 -10 -3 -14 -2 -10 5 4 5 1 16 -5 24 -18 22 -6 18 14 -4z m-299 -1
c-3 -5 -12 -10 -18 -10 -7 0 -6 4 3 10 19 12 23 12 15 0z m75 0 c0 -5 -5 -10
-11 -10 -5 0 -7 5 -4 10 3 6 8 10 11 10 2 0 4 -4 4 -10z m-42 -13 c8 -10 6
-13 -7 -13 -11 0 -17 6 -14 13 3 7 6 13 8 13 1 0 7 -6 13 -13z m239 -2 c0 -8
-4 -12 -9 -9 -5 3 -6 10 -3 15 9 13 12 11 12 -6z m-321 -14 c-17 -18 -38 -22
-52 -8 -4 3 3 5 14 2 11 -2 26 3 33 11 6 8 14 14 17 14 3 0 -3 -9 -12 -19z
m155 2 c13 -16 12 -17 -3 -4 -17 13 -22 21 -14 21 2 0 10 -8 17 -17z m103 -23
c-6 -6 -10 -3 -10 10 0 13 4 16 10 10 7 -7 7 -13 0 -20z m135 -1 c-22 -13 -31
-11 -17 5 7 8 17 12 22 9 4 -3 2 -9 -5 -14z m-414 -19 c-3 -5 -16 -10 -28 -9
-20 1 -20 2 3 9 14 4 26 8 28 9 2 1 0 -3 -3 -9z m246 -7 c8 -9 9 -14 2 -10 -6
4 -13 1 -16 -5 -3 -7 -4 -3 -4 10 1 26 1 26 18 5z m-257 -21 c2 -4 -4 -8 -14
-8 -10 0 -16 4 -14 8 3 4 9 8 14 8 5 0 11 -4 14 -8z m184 -23 c-3 -8 -7 -3
-11 10 -4 17 -3 21 5 13 5 -5 8 -16 6 -23z m102 27 c0 -2 -8 -10 -17 -17 -16
-13 -17 -12 -4 4 13 16 21 21 21 13z m-333 -12 c-3 -3 -12 -4 -19 -1 -8 3 -5
6 6 6 11 1 17 -2 13 -5z m139 -13 c0 -14 -4 -17 -12 -11 -6 6 -14 7 -17 3 -4
-3 -7 -1 -7 5 0 6 8 13 18 15 9 3 17 5 17 6 1 0 1 -8 1 -18z m120 -1 c0 -12
-4 -16 -9 -11 -5 5 -6 14 -3 20 10 15 12 14 12 -9z m-85 -13 c-10 -9 -11 -8
-5 6 3 10 9 15 12 12 3 -3 0 -11 -7 -18z m187 -22 c0 -13 -4 -22 -9 -19 -5 3
-9 0 -9 -5 0 -6 5 -11 10 -11 6 0 10 -5 10 -11 0 -6 -15 0 -34 15 -24 18 -36
22 -39 13 -3 -6 -4 -2 -4 10 l1 23 23 -22 22 -21 12 27 c15 32 17 32 17 1z
m-402 0 c-1 -8 -8 -21 -16 -28 -12 -10 -12 -9 -1 6 11 14 11 17 0 17 -11 0
-11 2 1 10 19 12 19 13 16 -5z m281 9 c-3 -3 -12 -4 -19 -1 -8 3 -5 6 6 6 11
1 17 -2 13 -5z m-106 -27 c-10 -9 -11 -8 -5 6 3 10 9 15 12 12 3 -3 0 -11 -7
-18z m-77 5 c2 -4 -4 -8 -14 -8 -10 0 -16 4 -14 8 3 4 9 8 14 8 5 0 11 -4 14
-8z m-137 -18 c-3 -3 -12 -4 -19 -1 -8 3 -5 6 6 6 11 1 17 -2 13 -5z m58 -4
c-3 -5 -12 -10 -18 -10 -7 0 -6 4 3 10 19 12 23 12 15 0z m102 -24 c18 -21 18
-21 -3 -3 -11 9 -23 14 -26 11 -3 -3 -8 -1 -12 4 -11 18 25 8 41 -12z m120 -1
c0 -8 -10 -23 -21 -32 -21 -18 -21 -18 -2 5 11 12 16 22 12 22 -4 0 -4 5 -1
10 9 14 12 13 12 -5z m58 5 c4 -6 -1 -7 -11 -3 -10 4 -15 2 -11 -4 3 -5 0 -10
-8 -10 -11 0 -12 4 -4 14 14 15 26 17 34 3z m-390 -18 c-3 -3 -11 0 -18 7 -9
10 -8 11 6 5 10 -3 15 -9 12 -12z m101 6 c3 -4 -1 -5 -10 -4 -8 1 -18 5 -22 8
-3 4 1 5 10 4 8 -1 18 -5 22 -8z m39 2 c-3 -5 -12 -10 -18 -10 -7 0 -6 4 3 10
19 12 23 12 15 0z m157 3 c-6 -3 -9 -10 -5 -16 4 -7 -1 -6 -10 2 -21 17 -21
17 6 18 12 0 16 -1 9 -4z m-101 -17 c14 8 11 -2 -4 -14 -10 -8 -13 -6 -14 11
0 12 1 16 4 9 3 -6 9 -10 14 -6z m604 -6 c3 -5 1 -10 -4 -10 -6 0 -11 5 -11
10 0 6 2 10 4 10 3 0 8 -4 11 -10z m-824 -23 c-6 -8 -7 -18 -3 -22 4 -5 1 -5
-5 -1 -8 4 -13 2 -14 -6 0 -11 -2 -11 -6 0 -3 7 3 20 13 27 24 18 29 19 15 2z
m44 3 c3 -6 -1 -7 -9 -4 -18 7 -21 14 -7 14 6 0 13 -4 16 -10z m73 -10 c-7
-10 -14 -17 -17 -15 -4 4 18 35 25 35 2 0 -1 -9 -8 -20z m730 -13 c2 -10 9
-14 15 -11 7 4 8 3 4 -2 -5 -5 -28 -9 -51 -10 -37 -1 -43 2 -38 18 2 10 0 18
-6 18 -5 0 -12 -10 -15 -22 -4 -12 -9 -19 -12 -16 -4 3 -2 15 4 26 14 26 94
26 99 -1z m-692 -9 c14 -17 15 -20 2 -9 -9 7 -22 10 -27 6 -7 -3 -8 0 -5 9 8
20 7 20 30 -6z m164 13 c0 -5 -8 -15 -17 -22 -16 -12 -17 -12 -6 2 7 9 10 19
6 22 -3 4 -1 7 5 7 7 0 12 -4 12 -9z m-115 -21 c-3 -5 -12 -10 -18 -10 -7 0
-6 4 3 10 19 12 23 12 15 0z"/>
<path d="M1515 1390 c-2 -3 5 -6 15 -7 11 -1 22 2 24 5 3 4 -4 8 -15 8 -11 0
-22 -3 -24 -6z"/>
<path d="M1300 1095 c-7 -8 -16 -13 -20 -10 -5 3 -11 -1 -13 -7 -4 -10 -6 -10
-6 0 -1 10 -6 9 -18 -4 -21 -20 -25 -54 -6 -47 11 4 11 8 1 21 -11 13 -10 15
3 10 10 -4 30 5 50 22 19 16 31 29 28 30 -4 0 -12 -7 -19 -15z"/>
<path d="M1005 40 c-3 -5 -5 -10 -3 -11 2 0 13 -2 26 -5 21 -4 22 -2 8 11 -17
18 -23 19 -31 5z"/>
<path d="M2555 1930 c-3 -5 -1 -10 4 -10 6 0 11 5 11 10 0 6 -2 10 -4 10 -3 0
-8 -4 -11 -10z"/>
<path d="M2530 1880 c0 -5 5 -10 10 -10 6 0 10 5 10 10 0 6 -4 10 -10 10 -5 0
-10 -4 -10 -10z"/>
<path d="M2567 1867 c2 -4 -1 -16 -8 -25 -11 -14 -11 -15 0 -5 7 6 19 9 25 7
6 -2 12 4 12 15 0 12 -7 19 -17 18 -10 -1 -15 -5 -12 -10z"/>
<path d="M2481 1857 c-16 -16 -14 -32 3 -18 12 11 14 7 10 -21 -6 -34 -7 -65
-5 -84 0 -6 12 -11 26 -11 21 0 23 2 14 14 -10 11 -14 11 -20 1 -5 -7 -6 7 -3
32 3 25 6 51 6 58 1 8 5 9 11 3 5 -5 4 -17 -3 -31 -17 -32 -4 -36 16 -5 17 26
17 28 -2 41 -10 7 -24 18 -30 23 -8 6 -16 5 -23 -2z"/>
<path d="M2560 1820 c-13 -24 -13 -40 0 -40 6 0 10 7 8 16 -2 10 4 19 12 21
12 4 12 3 1 -5 -10 -7 -10 -11 -1 -17 17 -10 -9 -26 -32 -19 -9 2 -19 0 -23
-6 -9 -15 24 -45 50 -47 18 -1 20 5 21 52 1 58 -17 81 -36 45z m10 -80 c0 -5
-2 -10 -4 -10 -3 0 -8 5 -11 10 -3 6 -1 10 4 10 6 0 11 -4 11 -10z"/>
<path d="M2395 1790 c-4 -6 -1 -17 5 -25 12 -15 5 -39 -10 -30 -13 8 -37 -5
-37 -20 0 -20 16 -19 24 1 5 13 7 13 14 2 7 -10 9 -10 9 2 0 11 3 11 11 -3 8
-14 8 -22 -1 -30 -8 -9 -10 -8 -5 4 4 10 0 16 -10 16 -19 0 -19 -8 -2 -32 13
-17 15 -17 30 5 9 13 13 28 9 34 -3 6 -7 26 -7 45 0 34 -17 52 -30 31z"/>
<path d="M2443 1706 c0 -15 4 -23 11 -20 23 9 63 -43 61 -78 -2 -29 18 -88 30
-88 6 0 -2 38 -12 53 -10 16 -10 39 0 54 6 8 4 15 -7 19 -15 6 -15 8 1 19 13
10 20 10 25 2 4 -6 10 -8 14 -4 11 10 -2 19 -31 22 -14 2 -25 -1 -25 -7 0 -5
-13 1 -29 14 -15 13 -26 26 -24 31 2 4 0 7 -5 7 -5 0 -9 -11 -9 -24z"/>
<path d="M2534 1600 c0 -12 7 -18 18 -17 10 1 18 8 18 17 0 9 -8 16 -18 17
-11 1 -18 -5 -18 -17z"/>
<path d="M1360 1509 c0 -6 4 -8 9 -5 10 7 24 -20 24 -49 1 -20 14 -35 31 -35
4 0 1 11 -8 25 -9 14 -12 25 -8 25 5 0 9 10 8 22 -1 17 -8 23 -28 25 -16 1
-28 -3 -28 -8z"/>
<path d="M1345 1450 c-3 -5 -12 -7 -19 -4 -10 4 -13 -6 -12 -38 2 -24 6 -49
10 -56 8 -14 -23 -61 -41 -62 -7 0 -13 -5 -13 -11 0 -6 -12 3 -26 20 -25 30
-64 42 -64 20 0 -6 6 -9 13 -6 10 4 13 -4 13 -26 -1 -18 -4 -37 -8 -43 -13
-20 5 -25 18 -5 7 10 11 31 8 47 -3 21 -2 25 5 14 5 -8 7 -18 5 -22 -3 -4 0
-8 7 -8 8 0 6 -6 -4 -18 -10 -10 -14 -21 -11 -24 3 -4 -4 -9 -16 -13 -17 -5
-19 -10 -9 -21 16 -20 30 -18 23 4 -5 14 -4 14 4 2 8 -10 8 -18 0 -27 -8 -10
-14 -8 -27 8 l-17 21 -24 -20 c-23 -19 -23 -21 -7 -27 17 -7 17 -8 0 -20 -13
-10 -20 -10 -26 -2 -6 9 -10 9 -13 0 -4 -9 -10 -10 -24 -1 -16 10 -17 13 -3
23 13 10 13 13 -3 26 -16 12 -17 12 -11 -3 7 -20 -40 -71 -60 -64 -16 6 -18
-10 -2 -19 6 -4 21 3 35 16 13 12 24 18 24 13 0 -6 23 -10 50 -10 28 0 50 4
50 10 0 5 11 -1 25 -14 14 -13 25 -19 25 -14 0 5 -14 22 -31 38 -21 20 -27 32
-20 39 7 7 17 5 31 -8 19 -17 22 -17 36 -3 12 12 14 21 6 34 -14 24 2 55 39
76 16 9 29 14 29 9 0 -11 33 -10 48 2 9 8 12 7 10 -3 -2 -7 2 -14 9 -17 14 -5
54 37 47 49 -3 5 2 18 12 29 10 11 12 19 5 19 -6 0 -14 -7 -17 -15 -5 -12 -9
-12 -29 1 -22 14 -24 13 -45 -16 -12 -16 -17 -30 -12 -30 5 0 16 10 25 23 12
17 18 19 27 10 15 -14 3 -36 -16 -29 -8 3 -17 -1 -20 -9 -4 -11 -10 -11 -23
-3 -16 10 -15 13 11 41 20 23 24 33 15 39 -20 12 -27 9 -21 -9 5 -14 4 -15 -4
-4 -10 14 4 51 19 51 4 0 7 11 7 25 0 27 -3 31 -13 15z m0 -28 c-3 -3 -11 0
-18 7 -9 10 -8 11 6 5 10 -3 15 -9 12 -12z m60 -132 c-10 -11 -21 -18 -23 -15
-3 3 3 12 14 20 27 20 30 18 9 -5z"/>
<path d="M1486 1451 c-3 -4 -17 -7 -31 -6 -24 3 -32 -5 -18 -18 3 -4 11 -3 17
3 7 5 17 5 26 -2 12 -8 11 -9 -4 -4 -14 5 -17 2 -12 -9 4 -12 2 -13 -13 -6
-12 7 -22 6 -29 -1 -9 -9 -12 -9 -12 2 0 9 -5 8 -20 -5 -25 -23 -25 -32 1 -46
17 -9 25 -8 37 5 14 14 17 14 29 -2 13 -16 14 -15 10 6 -3 14 0 22 8 22 11 0
20 17 30 58 4 14 -11 17 -19 3z m-79 -71 c-1 -12 -5 -16 -10 -11 -5 5 -6 14
-3 20 11 16 15 13 13 -9z m31 6 c-7 -8 -15 -12 -17 -11 -5 6 10 25 20 25 5 0
4 -6 -3 -14z"/>
<path d="M1240 1359 c-13 -9 -13 -10 0 -6 8 2 23 -2 33 -11 19 -17 24 -3 5 16
-15 15 -19 15 -38 1z"/>
<path d="M1630 1341 c0 -6 6 -8 14 -5 9 4 13 -2 12 -18 -1 -18 4 -23 24 -23
26 0 36 26 12 31 -7 1 -8 0 -2 -3 16 -8 12 -19 -9 -20 -13 -1 -18 5 -17 20 1
13 -6 23 -16 25 -10 2 -18 -1 -18 -7z"/>
<path d="M1370 1320 c0 -5 5 -10 10 -10 6 0 10 5 10 10 0 6 -4 10 -10 10 -5 0
-10 -4 -10 -10z"/>
<path d="M1590 1301 c0 -6 4 -13 10 -16 6 -3 7 1 4 9 -7 18 -14 21 -14 7z"/>
<path d="M1185 1290 c-4 -6 -11 -8 -16 -4 -6 3 -21 -4 -35 -17 -26 -24 -31
-41 -12 -36 7 1 13 -8 14 -20 1 -12 -2 -20 -7 -17 -4 2 -6 10 -3 18 3 7 -1 13
-9 13 -8 0 -14 -11 -14 -27 0 -18 6 -26 19 -26 10 0 18 3 18 7 0 3 12 11 26
17 19 9 24 17 19 32 -4 11 -2 20 3 20 5 0 10 11 10 25 0 27 -3 31 -13 15z m5
-27 c0 -2 -7 -3 -16 -1 -10 2 -19 -3 -22 -11 -2 -8 0 -11 5 -8 5 3 9 -3 10
-13 1 -11 -3 -23 -9 -26 -6 -4 -8 -3 -5 3 4 6 0 18 -7 29 -12 16 -12 20 2 30
14 11 42 9 42 -3z"/>
<path d="M1733 1282 c1 -23 37 -54 37 -32 0 5 -7 10 -16 10 -8 0 -13 4 -10 8
2 4 1 14 -4 22 -7 11 -9 9 -7 -8z"/>
<path d="M1630 1280 c-13 -8 -12 -10 3 -10 9 0 17 5 17 10 0 12 -1 12 -20 0z"/>
<path d="M1711 1274 c0 -11 3 -14 6 -6 3 7 2 16 -1 19 -3 4 -6 -2 -5 -13z"/>
<path d="M1671 1271 c-21 -14 -21 -50 1 -62 12 -6 18 -6 18 1 0 5 -6 10 -13
10 -7 0 -13 9 -13 20 0 11 6 20 13 20 7 0 13 5 13 10 0 12 -1 12 -19 1z"/>
<path d="M1084 1243 c-10 -15 -22 -33 -26 -39 -6 -8 0 -11 17 -11 14 0 25 3
25 8 0 5 -5 9 -10 9 -6 0 -3 11 6 25 9 14 14 28 11 31 -3 3 -13 -7 -23 -23z"/>
<path d="M1797 1263 c-10 -10 -8 -33 3 -33 5 0 6 7 3 17 -5 12 -3 14 7 8 9 -5
11 -4 6 3 -8 14 -10 14 -19 5z"/>
<path d="M1570 1240 c-9 -6 -10 -10 -3 -10 6 0 15 5 18 10 8 12 4 12 -15 0z"/>
<path d="M1620 1240 c0 -5 5 -10 10 -10 6 0 10 5 10 10 0 6 -4 10 -10 10 -5 0
-10 -4 -10 -10z"/>
<path d="M1690 1240 c0 -5 5 -10 10 -10 6 0 10 5 10 10 0 6 -4 10 -10 10 -5 0
-10 -4 -10 -10z"/>
<path d="M1288 1232 c-10 -2 -18 -8 -18 -13 0 -6 9 -8 19 -4 13 4 23 0 30 -12
7 -12 10 -14 11 -4 0 8 7 19 16 26 14 10 12 11 -12 11 -16 0 -37 -2 -46 -4z"/>
<path d="M1590 1220 c0 -5 5 -10 10 -10 6 0 10 5 10 10 0 6 -4 10 -10 10 -5 0
-10 -4 -10 -10z"/>
<path d="M1735 1221 c-3 -5 0 -13 6 -17 7 -4 9 -3 5 4 -3 5 0 13 6 15 9 4 10
6 1 6 -6 1 -14 -3 -18 -8z"/>
<path d="M1774 1222 c3 -5 0 -13 -6 -15 -9 -4 -10 -6 -1 -6 17 -1 25 16 12 25
-7 4 -9 3 -5 -4z"/>
<path d="M1830 1220 c0 -5 5 -10 11 -10 5 0 7 5 4 10 -3 6 -8 10 -11 10 -2 0
-4 -4 -4 -10z"/>
<path d="M1710 1205 c0 -8 4 -15 10 -15 5 0 7 7 4 15 -4 8 -8 15 -10 15 -2 0
-4 -7 -4 -15z"/>
<path d="M1515 1200 c-13 -6 -15 -9 -5 -9 8 0 22 4 30 9 18 12 2 12 -25 0z"/>
<path d="M1620 1198 c0 -4 7 -8 15 -8 8 0 15 4 15 8 0 5 -7 9 -15 9 -8 0 -15
-4 -15 -9z"/>
<path d="M2079 1193 c-13 -16 -12 -17 4 -4 16 13 21 21 13 21 -2 0 -10 -8 -17
-17z"/>
<path d="M1596 1187 c3 -10 9 -15 12 -12 3 3 0 11 -7 18 -10 9 -11 8 -5 -6z"/>
<path d="M1535 1181 c-3 -5 0 -13 6 -17 7 -4 9 -3 5 4 -4 7 1 10 14 9 25 -2
25 -6 3 -24 -16 -13 -16 -13 5 -3 13 6 22 16 20 22 -5 14 -45 21 -53 9z"/>
<path d="M1655 1181 c-3 -5 -1 -12 5 -16 5 -3 10 -11 10 -16 0 -6 -5 -7 -12
-3 -6 4 -8 3 -4 -4 3 -6 16 -9 27 -7 16 3 19 0 14 -13 -5 -13 -3 -14 6 -5 12
12 3 37 -10 29 -4 -3 -13 4 -19 15 -11 17 -10 20 5 17 10 -2 26 -12 36 -23 18
-20 18 -20 3 4 -16 26 -51 38 -61 22z"/>
<path d="M1735 1179 c-4 -6 -4 -13 -1 -16 3 -4 6 -1 6 6 0 7 5 9 12 5 7 -4 8
-3 4 4 -9 15 -13 15 -21 1z"/>
<path d="M1890 1179 c0 -5 5 -7 10 -4 6 3 10 8 10 11 0 2 -4 4 -10 4 -5 0 -10
-5 -10 -11z"/>
<path d="M2010 1180 c0 -5 5 -10 11 -10 5 0 7 5 4 10 -3 6 -8 10 -11 10 -2 0
-4 -4 -4 -10z"/>
<path d="M1101 1157 c-8 -11 -5 -14 19 -14 24 0 27 3 19 14 -6 7 -15 13 -19
13 -4 0 -13 -6 -19 -13z"/>
<path d="M1510 1163 c14 -7 12 -23 -2 -20 -19 3 -16 -46 2 -50 9 -3 11 -1 5 4
-15 13 -18 44 -3 41 7 -2 13 3 13 11 0 8 -6 15 -13 17 -7 1 -8 0 -2 -3z"/>
<path d="M1620 1160 c0 -5 5 -10 10 -10 6 0 10 5 10 10 0 6 -4 10 -10 10 -5 0
-10 -4 -10 -10z"/>
<path d="M1799 1153 c-13 -16 -12 -17 4 -4 16 13 21 21 13 21 -2 0 -10 -8 -17
-17z"/>
<path d="M1590 1140 c0 -5 5 -10 10 -10 6 0 10 5 10 10 0 6 -4 10 -10 10 -5 0
-10 -4 -10 -10z"/>
<path d="M1471 1114 c0 -11 3 -14 6 -6 3 7 2 16 -1 19 -3 4 -6 -2 -5 -13z"/>
<path d="M1525 1120 c-3 -6 1 -7 9 -4 18 7 21 14 7 14 -6 0 -13 -4 -16 -10z"/>
<path d="M1628 1123 c7 -3 16 -2 19 1 4 3 -2 6 -13 5 -11 0 -14 -3 -6 -6z"/>
<path d="M1420 1116 c0 -2 7 -6 15 -10 8 -3 15 -1 15 4 0 6 -7 10 -15 10 -8 0
-15 -2 -15 -4z"/>
<path d="M1536 1102 c-2 -4 2 -16 10 -27 8 -10 14 -14 14 -9 0 6 -6 16 -12 23
-11 10 -9 12 7 9 11 -1 26 -10 33 -18 11 -13 13 -13 25 0 6 8 20 16 30 18 15
3 16 0 5 -17 -6 -11 -15 -18 -19 -15 -13 8 -22 -17 -10 -29 9 -9 10 -7 5 7 -5
14 -4 17 4 12 7 -4 15 -1 18 8 3 9 10 14 14 11 5 -3 7 3 6 12 -4 23 -43 26
-56 4 -8 -14 -11 -14 -19 -2 -10 16 -47 25 -55 13z"/>
<path d="M1790 1096 c0 -2 8 -10 18 -17 15 -13 16 -12 3 4 -13 16 -21 21 -21
13z"/>
<path d="M1451 1085 c4 -3 19 -8 35 -11 16 -3 26 -2 23 1 -4 3 -19 8 -35 11
-16 3 -26 2 -23 -1z"/>
<path d="M1512 1056 c-10 -22 -9 -24 10 -21 11 3 23 7 27 11 3 4 -2 4 -12 1
-15 -6 -17 -3 -12 13 9 28 0 25 -13 -4z"/>
<path d="M1445 1063 c15 -12 18 -44 4 -41 -6 2 -14 -4 -16 -12 -4 -12 -3 -12
5 -2 5 8 13 13 18 13 15 -1 10 42 -6 46 -9 3 -11 1 -5 -4z"/>
<path d="M1580 1051 c5 -11 15 -23 21 -27 6 -3 3 5 -6 20 -20 30 -30 35 -15 7z"/>
<path d="M1895 1060 c3 -5 8 -10 11 -10 2 0 4 5 4 10 0 6 -5 10 -11 10 -5 0
-7 -4 -4 -10z"/>
<path d="M1367 1030 c10 -11 19 -20 21 -20 1 0 -2 9 -8 20 -6 11 -15 20 -20
20 -6 0 -2 -9 7 -20z"/>
<path d="M1420 1040 c-9 -6 -10 -10 -3 -10 6 0 15 5 18 10 8 12 4 12 -15 0z"/>
<path d="M1667 1039 c7 -7 15 -10 18 -7 3 3 -2 9 -12 12 -14 6 -15 5 -6 -5z"/>
<path d="M1350 1026 c0 -5 7 -17 16 -27 15 -17 15 -18 -5 -16 -12 1 -21 7 -21
14 0 7 -5 13 -10 13 -7 0 -7 -6 -1 -19 10 -19 52 -24 50 -6 -2 14 -29 52 -29
41z"/>
<path d="M1476 1013 c-6 -14 -5 -15 5 -6 7 7 10 15 7 18 -3 3 -9 -2 -12 -12z"/>
<path d="M1539 1022 c-1 -4 0 -15 1 -26 1 -10 -2 -16 -7 -13 -5 3 -15 1 -23
-4 -13 -9 -13 -10 0 -6 8 2 24 -3 34 -12 15 -12 17 -12 11 -2 -16 27 -12 60 7
58 21 -1 22 -8 6 -27 -11 -12 -10 -12 5 -1 10 8 16 19 14 24 -4 12 -46 20 -48
9z"/>
<path d="M1810 1019 c0 -5 5 -7 10 -4 6 3 10 8 10 11 0 2 -4 4 -10 4 -5 0 -10
-5 -10 -11z"/>
<path d="M1400 1005 c0 -8 4 -15 10 -15 5 0 7 7 4 15 -4 8 -8 15 -10 15 -2 0
-4 -7 -4 -15z"/>
<path d="M1709 1003 c-13 -16 -12 -17 4 -4 16 13 21 21 13 21 -2 0 -10 -8 -17
-17z"/>
<path d="M1495 1000 c-3 -5 -2 -10 4 -10 5 0 13 5 16 10 3 6 2 10 -4 10 -5 0
-13 -4 -16 -10z"/>
<path d="M1636 993 c-6 -14 -5 -15 5 -6 7 7 10 15 7 18 -3 3 -9 -2 -12 -12z"/>
<path d="M1870 996 c7 -7 13 -7 20 0 6 6 3 10 -10 10 -13 0 -16 -4 -10 -10z"/>
<path d="M1454 989 c1 -7 10 -13 19 -15 9 -1 15 2 11 7 -3 5 -9 7 -14 4 -4 -3
-11 0 -13 5 -3 6 -4 5 -3 -1z"/>
<path d="M1276 975 c-9 -26 -7 -32 5 -12 6 10 9 21 6 23 -2 3 -7 -2 -11 -11z"/>
<path d="M1300 970 c0 -5 0 -13 1 -16 0 -4 -5 -11 -13 -16 -11 -8 -10 -9 1 -6
13 4 28 48 16 48 -3 0 -5 -4 -5 -10z"/>
<path d="M1321 954 c0 -11 3 -14 6 -6 3 7 2 16 -1 19 -3 4 -6 -2 -5 -13z"/>
<path d="M1390 960 c0 -6 7 -10 15 -10 8 0 15 2 15 4 0 2 -7 6 -15 10 -8 3
-15 1 -15 -4z"/>
<path d="M1350 950 c0 -5 6 -10 13 -10 7 0 13 -9 13 -20 0 -13 -6 -18 -20 -17
-15 1 -20 -4 -21 -20 0 -13 4 -23 10 -22 5 0 13 -8 17 -18 7 -16 8 -16 5 2 -2
11 -8 19 -14 18 -7 -2 -11 6 -10 17 1 12 8 18 21 17 26 -3 30 40 4 54 -12 6
-18 6 -18 -1z"/>
<path d="M1468 953 c7 -3 16 -2 19 1 4 3 -2 6 -13 5 -11 0 -14 -3 -6 -6z"/>
<path d="M1504 945 c-18 -15 -18 -15 0 -8 15 5 17 3 11 -8 -5 -8 -4 -11 0 -6
8 7 17 37 11 37 -1 0 -11 -7 -22 -15z"/>
<path d="M1230 941 c0 -6 7 -8 15 -4 10 3 15 1 13 -8 -2 -7 6 -14 17 -16 18
-3 18 -2 2 5 -10 4 -18 12 -17 17 0 6 -6 11 -14 13 -9 2 -16 -1 -16 -7z"/>
<path d="M1430 940 c0 -5 5 -10 10 -10 6 0 10 5 10 10 0 6 -4 10 -10 10 -5 0
-10 -4 -10 -10z"/>
<path d="M1815 940 c-3 -5 -1 -10 4 -10 6 0 11 5 11 10 0 6 -2 10 -4 10 -3 0
-8 -4 -11 -10z"/>
<path d="M1316 918 c3 -4 11 -5 19 -1 21 7 19 12 -4 10 -11 0 -18 -5 -15 -9z"/>
<path d="M1400 920 c0 -5 5 -10 10 -10 6 0 10 5 10 10 0 6 -4 10 -10 10 -5 0
-10 -4 -10 -10z"/>
<path d="M1460 926 c0 -2 7 -7 16 -10 8 -3 12 -2 9 4 -6 10 -25 14 -25 6z"/>
<path d="M1236 907 c3 -10 9 -15 12 -12 3 3 0 11 -7 18 -10 9 -11 8 -5 -6z"/>
<path d="M1435 909 c-4 -6 -5 -12 -2 -15 2 -3 7 2 10 11 7 17 1 20 -8 4z"/>
<path d="M1216 882 c1 -22 6 -27 25 -27 15 0 23 5 21 13 -2 10 4 12 20 7 20
-5 21 -4 5 5 -19 12 -41 4 -32 -11 4 -5 -3 -9 -13 -9 -15 0 -19 5 -15 19 3 10
1 21 -4 24 -5 3 -8 -7 -7 -21z"/>
<path d="M1294 899 c-4 -7 -3 -9 4 -5 5 3 13 0 15 -6 4 -9 6 -10 6 -1 1 17
-16 25 -25 12z"/>
<path d="M1454 899 c-3 -6 -1 -16 5 -22 9 -9 10 -7 5 7 -6 15 -4 17 6 11 9 -5
11 -4 6 3 -9 15 -13 15 -22 1z"/>
<path d="M1690 899 c0 -5 5 -7 10 -4 6 3 10 8 10 11 0 2 -4 4 -10 4 -5 0 -10
-5 -10 -11z"/>
<path d="M1188 883 c7 -3 16 -2 19 1 4 3 -2 6 -13 5 -11 0 -14 -3 -6 -6z"/>
<path d="M1380 880 c-18 -12 -2 -12 25 0 13 6 15 9 5 9 -8 0 -22 -4 -30 -9z"/>
<path d="M1310 861 c0 -6 4 -13 10 -16 6 -3 7 1 4 9 -7 18 -14 21 -14 7z"/>
<path d="M1490 860 c0 -5 5 -10 11 -10 5 0 7 5 4 10 -3 6 -8 10 -11 10 -2 0
-4 -4 -4 -10z"/>
<path d="M1655 860 c3 -5 8 -10 11 -10 2 0 4 5 4 10 0 6 -5 10 -11 10 -5 0 -7
-4 -4 -10z"/>
<path d="M1715 860 c-3 -5 -1 -10 4 -10 6 0 11 5 11 10 0 6 -2 10 -4 10 -3 0
-8 -4 -11 -10z"/>
<path d="M1390 851 c0 -6 4 -13 10 -16 6 -3 7 1 4 9 -7 18 -14 21 -14 7z"/>
<path d="M1190 840 c0 -5 5 -10 10 -10 6 0 10 5 10 10 0 6 -4 10 -10 10 -5 0
-10 -4 -10 -10z"/>
<path d="M1283 842 c10 -4 19 -12 20 -17 3 -16 40 -11 44 5 3 9 1 11 -4 5 -12
-15 -44 -18 -41 -4 2 7 -6 14 -17 16 -18 3 -18 2 -2 -5z"/>
<path d="M1259 828 c-5 -19 -7 -44 -3 -50 7 -11 34 10 34 25 0 6 -7 2 -15 -9
-15 -19 -16 -19 -13 1 2 11 8 23 13 27 6 5 5 8 -2 8 -7 0 -13 -1 -14 -2z"/>
<path d="M1374 815 c-4 -8 -9 -13 -13 -10 -4 2 -8 -2 -8 -10 0 -8 4 -12 9 -9
10 7 30 44 23 44 -3 0 -8 -7 -11 -15z"/>
<path d="M1430 816 c0 -2 8 -10 18 -17 15 -13 16 -12 3 4 -13 16 -21 21 -21
13z"/>
<path d="M1675 809 c-4 -6 -5 -12 -2 -15 2 -3 7 2 10 11 7 17 1 20 -8 4z"/>
<path d="M1506 802 c-2 -4 4 -8 14 -8 10 0 16 4 14 8 -3 4 -9 8 -14 8 -5 0
-11 -4 -14 -8z"/>
<path d="M1906 798 c3 -5 10 -6 15 -3 13 9 11 12 -6 12 -8 0 -12 -4 -9 -9z"/>
<path d="M1307 789 c-9 -6 -15 -14 -12 -20 4 -5 -1 -9 -9 -9 -9 0 -16 -5 -16
-10 0 -7 7 -7 20 0 11 6 17 16 14 22 -5 8 -1 9 10 5 9 -4 15 -3 11 2 -3 5 1
12 7 14 7 3 9 6 3 6 -5 0 -18 -4 -28 -10z"/>
<path d="M1236 767 c5 -21 3 -27 -7 -25 -9 2 -14 -6 -14 -22 0 -16 5 -24 14
-22 9 2 12 -4 8 -19 -4 -16 -3 -19 5 -11 13 13 2 46 -12 37 -5 -3 -10 3 -10
15 0 12 5 18 10 15 15 -9 23 21 11 42 -9 15 -10 13 -5 -10z"/>
<path d="M1196 754 c-5 -14 -4 -15 9 -4 17 14 19 20 6 20 -5 0 -12 -7 -15 -16z"/>
<path d="M1639 753 c-13 -16 -12 -17 4 -4 16 13 21 21 13 21 -2 0 -10 -8 -17
-17z"/>
<path d="M1415 740 c-3 -5 -1 -10 4 -10 6 0 11 5 11 10 0 6 -2 10 -4 10 -3 0
-8 -4 -11 -10z"/>
<path d="M1250 720 c0 -5 5 -10 10 -10 6 0 10 5 10 10 0 6 -4 10 -10 10 -5 0
-10 -4 -10 -10z"/>
<path d="M1315 720 c3 -5 8 -10 11 -10 2 0 4 5 4 10 0 6 -5 10 -11 10 -5 0 -7
-4 -4 -10z"/>
<path d="M1455 700 c3 -5 8 -10 11 -10 2 0 4 5 4 10 0 6 -5 10 -11 10 -5 0 -7
-4 -4 -10z"/>
<path d="M1310 696 c0 -2 8 -10 18 -17 15 -13 16 -12 3 4 -13 16 -21 21 -21
13z"/>
<path d="M1235 640 c3 -5 8 -10 11 -10 2 0 4 5 4 10 0 6 -5 10 -11 10 -5 0 -7
-4 -4 -10z"/>
<path d="M1236 607 c3 -10 9 -15 12 -12 3 3 0 11 -7 18 -10 9 -11 8 -5 -6z"/>
<path d="M1389 603 c-13 -16 -12 -17 4 -4 16 13 21 21 13 21 -2 0 -10 -8 -17
-17z"/>
<path d="M1465 600 c-3 -6 1 -7 9 -4 18 7 21 14 7 14 -6 0 -13 -4 -16 -10z"/>
<path d="M1295 580 c3 -5 8 -10 11 -10 2 0 4 5 4 10 0 6 -5 10 -11 10 -5 0 -7
-4 -4 -10z"/>
<path d="M888 285 c-3 -3 -4 -20 -2 -38 3 -26 1 -29 -7 -14 -14 23 -25 22 -34
-5 -12 -36 -12 -72 -1 -80 22 -15 28 -7 13 16 -14 21 -14 25 -2 30 9 3 12 12
8 23 -7 17 -6 17 11 1 26 -27 31 -22 32 27 0 42 -5 53 -18 40z"/>
<path d="M915 200 c-4 -6 -15 -8 -25 -5 -23 7 -34 -9 -21 -33 7 -13 7 -22 0
-29 -6 -6 -3 -18 9 -33 l19 -24 28 28 c15 15 24 30 20 34 -3 4 -15 -4 -25 -18
-14 -19 -22 -22 -31 -13 -14 14 -3 34 18 31 9 -2 18 2 20 9 3 8 -4 10 -22 7
-18 -3 -24 -1 -20 6 4 6 14 9 22 6 11 -4 13 -2 10 9 -4 8 -1 17 5 21 6 4 8 3
5 -3 -9 -14 22 -55 36 -46 7 4 6 -1 -2 -10 -8 -10 -10 -21 -6 -25 4 -4 10 -1
12 6 4 10 10 9 26 -5 19 -17 16 -3 -6 22 -4 6 -17 25 -27 43 -20 33 -34 40
-45 22z m39 -26 c3 -8 2 -12 -4 -9 -6 3 -10 10 -10 16 0 14 7 11 14 -7z"/>
<path d="M760 185 c7 -8 8 -15 3 -15 -13 0 -11 -93 2 -102 21 -15 27 -7 11 16
-12 19 -12 26 -3 30 9 5 9 7 0 12 -10 4 -10 10 1 26 13 18 13 23 1 34 -18 19
-31 18 -15 -1z"/>
<path d="M839 140 c0 -3 -2 -14 -4 -24 -6 -30 13 -58 34 -51 12 3 22 -3 31
-20 7 -13 17 -22 22 -19 5 3 4 12 -2 19 -7 8 -8 20 -4 26 5 9 2 10 -9 6 -8 -3
-21 1 -27 9 -17 19 -31 18 -24 -3 5 -15 4 -15 -4 -3 -7 8 -7 19 -2 25 5 6 5
17 0 25 -6 8 -10 13 -11 10z"/>
<path d="M890 120 c0 -5 5 -10 10 -10 6 0 10 5 10 10 0 6 -4 10 -10 10 -5 0
-10 -4 -10 -10z"/>
<path d="M647 92 c-10 -10 -17 -21 -17 -24 0 -10 36 -5 50 8 14 11 16 10 17
-6 1 -11 -3 -22 -8 -25 -5 -4 -7 -11 -4 -16 9 -13 22 -11 23 4 0 6 3 21 5 32
3 11 -1 26 -9 32 -10 10 -16 9 -29 -10 l-17 -22 7 23 c8 27 3 28 -18 4z"/>
<path d="M792 80 c3 -8 -1 -23 -9 -32 -14 -15 -13 -17 5 -15 14 1 19 7 17 24
-1 13 -6 27 -10 31 -4 4 -5 0 -3 -8z"/>
</g>
</svg>
